<?xml version="1.0" standalone="no"?>
<!DOCTYPE svg PUBLIC "-//W3C//DTD SVG 20010904//EN"
 "http://www.w3.org/TR/2001/REC-SVG-20010904/DTD/svg10.dtd">
<svg version="1.0" xmlns="http://www.w3.org/2000/svg"
 width="144.000000pt" height="144.000000pt" viewBox="0 0 144.000000 144.000000"
 preserveAspectRatio="xMidYMid meet">
<metadata>
Created by potrace 1.14, written by Peter Selinger 2001-2017
</metadata>
<g transform="translate(0.000000,144.000000) scale(0.100000,-0.100000)"
fill="#000000" stroke="none">
<path d="M895 1381 c-3 -6 4 -15 15 -21 29 -15 20 -36 -13 -32 -32 4 -35 -10
-7 -38 21 -21 55 -26 65 -10 3 6 15 10 26 10 13 0 19 -7 19 -23 0 -28 33 -62
53 -54 12 4 12 1 3 -18 -6 -13 -13 -22 -16 -20 -6 3 -159 -232 -169 -258 -2
-6 7 -7 23 -3 30 7 66 -8 66 -28 0 -8 6 -18 13 -24 10 -9 27 20 80 131 37 78
67 148 67 155 0 7 -15 13 -37 13 l-38 2 35 6 c27 5 34 10 32 25 -2 10 1 15 6
12 17 -10 62 34 62 60 0 28 25 32 56 9 23 -17 60 -19 70 -3 4 6 0 16 -9 23
-24 17 -22 38 3 30 26 -8 27 16 2 38 -23 21 -36 21 -52 2 -14 -17 -70 -21 -70
-5 0 14 -37 12 -43 -2 -4 -8 -6 -7 -6 3 -1 19 -28 33 -36 19 -4 -6 -17 -7 -30
-4 -12 3 -26 1 -29 -5 -10 -16 -56 -13 -62 4 -7 17 -69 21 -79 6z m213 -236
c2 -2 -117 -256 -124 -264 -2 -2 -13 8 -25 22 -11 15 -29 27 -40 27 -10 0 -19
3 -19 6 0 4 30 55 68 114 l67 108 35 -6 c19 -2 36 -6 38 -7z"/>
<path d="M110 1335 c0 -35 0 -35 44 -35 29 0 52 -7 69 -21 15 -11 114 -175
222 -364 l195 -343 0 -201 c0 -201 0 -202 -25 -226 -20 -21 -34 -25 -80 -25
l-55 0 0 -35 0 -35 260 2 c143 2 261 7 263 12 1 4 -36 21 -83 36 l-85 28 -16
-20 c-12 -15 -24 -19 -42 -16 -15 3 -24 1 -21 -3 9 -15 52 -10 69 7 14 14 22
15 61 4 l46 -13 -32 -14 c-18 -7 -66 -13 -107 -13 l-75 0 14 22 c8 13 18 35
22 50 5 23 12 28 35 28 25 0 30 5 36 38 13 67 15 235 4 249 -8 9 -8 13 0 13 7
0 11 29 11 87 l0 86 60 88 c33 48 60 92 60 98 0 6 -12 8 -30 5 -34 -7 -60 9
-60 37 0 34 -27 20 -82 -42 l-54 -62 -133 237 c-95 171 -131 245 -129 264 3
26 6 27 71 30 l67 3 0 39 0 40 -250 0 -250 0 0 -35z m674 -596 c13 -7 30 -24
36 -38 33 -80 -79 -137 -126 -66 -22 33 -8 85 26 102 31 16 33 16 64 2z m-20
-146 c17 2 39 7 49 12 15 6 17 0 17 -63 0 -68 -1 -69 -24 -65 -16 3 -31 -2
-46 -17 -12 -12 -27 -19 -34 -17 -7 3 -18 37 -24 75 -16 95 -16 95 9 81 12 -6
35 -9 53 -6z"/>
</g>
</svg>
